# xmcd
#
# Track frame offsets:
#	150
#	44247
#	78068
#	104338
#	136354
#	171672
#	210195
#	242361
#	271242
#	298356
#
# Disc length: 4749 seconds
# Revision: 0
# Processed by: cddbd v1.5.2PL0 Copyright (c) Steve Scherf et al.
# Submitted via: dBpowerAMP V12.0
#
DISCID=91128b0a
DTITLE=Various Artist - The Definitive Salsoul Mixes '78-'83
DYEAR=2004
DGENRE=R&B
TTITLE0=Instant Funk - I Got My Mind Made Up
TTITLE1=Skyy - First Time Around
TTITLE2=Jimmy Castor - It's Just Begun
TTITLE3=Instant Funk - Everybody
TTITLE4=Steve Arrington - Summertime Lovin'
TTITLE5=Skyy - Skyzoo
TTITLE6=Instant Funk - Slap Slap Lickedy Lap
TTITLE7=Sparkle - Handsome Man
TTITLE8=Instant Funk - Bodyshine
TTITLE9=Inner Life Feat. Jocelyn Brown - Make It Last Forever
EXTD=
EXTT0=
EXTT1=
EXTT2=
EXTT3=
EXTT4=
EXTT5=
EXTT6=
EXTT7=
EXTT8=
EXTT9=
PLAYORDER=
